<?xml version="1.0" encoding="UTF-8"?><svg id="Lag_1" xmlns="http://www.w3.org/2000/svg" width="650mm" height="355.7055mm" xmlns:xlink="http://www.w3.org/1999/xlink" viewBox="0 0 1842.5197 1008.299"><defs><style>.cls-1{fill:url(#Super_Soft_Black_Vignette-19);}.cls-2{stroke:url(#Super_Soft_Black_Vignette-8);}.cls-2,.cls-3,.cls-4,.cls-5,.cls-6,.cls-7,.cls-8,.cls-9,.cls-10,.cls-11,.cls-12{fill:#fff;}.cls-2,.cls-4,.cls-5,.cls-6,.cls-7,.cls-8,.cls-9,.cls-10,.cls-11,.cls-12{stroke-miterlimit:10;stroke-width:10.0402px;}.cls-13{fill:url(#Super_Soft_Black_Vignette-22);}.cls-4{stroke:url(#Super_Soft_Black_Vignette-9);}.cls-5{stroke:url(#Super_Soft_Black_Vignette-6);}.cls-14{fill:url(#Super_Soft_Black_Vignette-21);}.cls-15{fill:url(#Super_Soft_Black_Vignette-12);}.cls-16{fill:url(#Super_Soft_Black_Vignette-11);}.cls-6{stroke:url(#Super_Soft_Black_Vignette-3);}.cls-17{fill:url(#Super_Soft_Black_Vignette-16);}.cls-7{stroke:url(#Super_Soft_Black_Vignette);}.cls-18{fill:url(#Super_Soft_Black_Vignette-14);}.cls-8{stroke:url(#Super_Soft_Black_Vignette-5);}.cls-9{stroke:url(#Super_Soft_Black_Vignette-7);}.cls-19{fill:url(#Super_Soft_Black_Vignette-17);}.cls-10{stroke:url(#Super_Soft_Black_Vignette-2);}.cls-20{fill:url(#Super_Soft_Black_Vignette-20);}.cls-21{fill:url(#Super_Soft_Black_Vignette-13);}.cls-22{fill:url(#Super_Soft_Black_Vignette-18);}.cls-11{stroke:url(#Super_Soft_Black_Vignette-4);}.cls-23{fill:url(#Super_Soft_Black_Vignette-15);}.cls-12{stroke:url(#Super_Soft_Black_Vignette-10);}</style><radialGradient id="Super_Soft_Black_Vignette" cx="344.7635" cy="498.9206" fx="344.7635" fy="498.9206" r="106.1948" gradientUnits="userSpaceOnUse"><stop offset=".5744" stop-color="#120c0e"/><stop offset=".7977" stop-color="#120c0e"/><stop offset="1" stop-color="#120c0e"/></radialGradient><radialGradient id="Super_Soft_Black_Vignette-2" cx="445.8578" cy="495.9804" fx="445.8578" fy="495.9804" r="109.8406" xlink:href="#Super_Soft_Black_Vignette"/><radialGradient id="Super_Soft_Black_Vignette-3" cx="588.8032" cy="500.9803" fx="588.8032" fy="500.9803" r="115.9952" xlink:href="#Super_Soft_Black_Vignette"/><radialGradient id="Super_Soft_Black_Vignette-4" cx="750.8734" cy="508.301" fx="750.8734" fy="508.301" r="119.8934" xlink:href="#Super_Soft_Black_Vignette"/><radialGradient id="Super_Soft_Black_Vignette-5" cx="883.2144" cy="495.9804" fx="883.2144" fy="495.9804" r="109.8406" xlink:href="#Super_Soft_Black_Vignette"/><radialGradient id="Super_Soft_Black_Vignette-6" cx="1015.7081" cy="501.4366" fx="1015.7081" fy="501.4366" r="109.8241" xlink:href="#Super_Soft_Black_Vignette"/><radialGradient id="Super_Soft_Black_Vignette-7" cx="1152.1027" cy="495.9804" fx="1152.1027" fy="495.9804" r="109.8406" xlink:href="#Super_Soft_Black_Vignette"/><radialGradient id="Super_Soft_Black_Vignette-8" cx="1284.1203" cy="498.2309" fx="1284.1203" fy="498.2309" r="112.1841" xlink:href="#Super_Soft_Black_Vignette"/><radialGradient id="Super_Soft_Black_Vignette-9" cx="1391.736" cy="500.2766" fx="1391.736" fy="500.2766" r="99.064" xlink:href="#Super_Soft_Black_Vignette"/><radialGradient id="Super_Soft_Black_Vignette-10" cx="1482.4324" cy="495.9804" fx="1482.4324" fy="495.9804" r="109.8406" xlink:href="#Super_Soft_Black_Vignette"/><radialGradient id="Super_Soft_Black_Vignette-11" cx="971.577" cy="212.6867" fx="971.577" fy="212.6867" r="61.0281" xlink:href="#Super_Soft_Black_Vignette"/><radialGradient id="Super_Soft_Black_Vignette-12" cx="149.6546" cy="314.0314" fx="149.6546" fy="314.0314" r="61.3919" gradientTransform="translate(341.4236 -98.6491) rotate(13.2825)" xlink:href="#Super_Soft_Black_Vignette"/><radialGradient id="Super_Soft_Black_Vignette-13" cx="1419.6117" cy="255.6203" fx="1419.6117" fy="255.6203" r="61.6528" xlink:href="#Super_Soft_Black_Vignette"/><radialGradient id="Super_Soft_Black_Vignette-14" cx="1028.7117" cy="167.8582" fx="1028.7117" fy="167.8582" r="74.1226" xlink:href="#Super_Soft_Black_Vignette"/><radialGradient id="Super_Soft_Black_Vignette-15" cx="393.6703" cy="781.5782" fx="393.6703" fy="781.5782" r="61.6337" xlink:href="#Super_Soft_Black_Vignette"/><radialGradient id="Super_Soft_Black_Vignette-16" cx="332.8511" cy="765.917" fx="332.8511" fy="765.917" r="75.2323" xlink:href="#Super_Soft_Black_Vignette"/><radialGradient id="Super_Soft_Black_Vignette-17" cx="97.9516" cy="188.8324" fx="97.9516" fy="188.8324" r="69.5884" gradientTransform="translate(341.4236 -98.6491) rotate(13.2825)" xlink:href="#Super_Soft_Black_Vignette"/><radialGradient id="Super_Soft_Black_Vignette-18" cx="1504.7992" cy="156.9782" fx="1504.7992" fy="156.9782" r="69.2521" xlink:href="#Super_Soft_Black_Vignette"/><radialGradient id="Super_Soft_Black_Vignette-19" cx="1457.734" cy="788.1546" fx="1457.734" fy="788.1546" r="67.0031" xlink:href="#Super_Soft_Black_Vignette"/><radialGradient id="Super_Soft_Black_Vignette-20" cx="1505.2555" cy="776.7747" fx="1505.2555" fy="776.7747" r="67.0249" xlink:href="#Super_Soft_Black_Vignette"/><radialGradient id="Super_Soft_Black_Vignette-21" cx="1535.1368" cy="906.4634" fx="1535.1368" fy="906.4634" r="76.3867" xlink:href="#Super_Soft_Black_Vignette"/><radialGradient id="Super_Soft_Black_Vignette-22" cx="194.4965" cy="289.1386" fx="194.4965" fy="289.1386" r="61.652" gradientTransform="translate(341.4236 -98.6491) rotate(13.2825)" xlink:href="#Super_Soft_Black_Vignette"/></defs><g><path class="cls-7" d="M414.8485,374.6291l-1.982,61.4413c-15.4165,.882-30.06,1.982-43.9338,3.3033-14.5345,61.002-24.3354,117.0509-29.3993,168.1378l-55.8257,14.5345,30.3903-175.7354c-5.9459,.882-11.8919,1.873-17.8378,2.973l-17.5075,3.3033-3.964-61.7717,140.0598-16.1862Z"/><path class="cls-10" d="M457.1151,437.608c-1.7606,6.4112-3.2981,12.703-4.6142,18.8859l-3.6284,18.2252,52.8528-11.2312-2.9678,45.6011c-25.0532,4.4084-44.719,8.2582-58.9993,11.5615-.8786,4.4084-1.6465,8.8151-2.3071,13.2184l-2.4731,12.8673,61.4621-8.9241-4.2943,61.4413c-31.7117,2.6426-71.9029,10.2402-120.5703,22.7927l39.3144-236.8464,110.0205-16.1965-4.315,61.3687c-21.5908,1.9768-41.4157,4.3877-59.4801,7.2361Z"/><path class="cls-6" d="M555.9096,629.6437c-23.3496,0-39.8661-12.5525-49.5598-37.6576-5.0639-12.5525-7.5976-26.6426-7.5976-42.2822,0-14.7507,2.3123-30.9368,6.9369-48.5585,7.7065-30.169,21.4714-57.8077,41.2912-82.9128,23.9999-30.6065,49.5495-45.9158,76.6365-45.9158,23.5624,0,40.1861,12.997,49.8798,38.9789l-36.6666,39.3092c-3.964-5.9459-9.8009-8.9189-17.5075-8.9189-14.979,0-29.069,10.3544-42.2822,31.051-9.9099,15.6396-17.2913,32.924-22.1321,51.8618-1.982,7.4886-2.973,14.2042-2.973,20.1501,0,9.033,2.3123,16.3003,6.9369,21.8018,5.0639,6.1673,12.1081,9.2492,21.1411,9.2492,10.3492,0,19.9287-4.7336,28.7387-14.2042,7.0459-7.4834,12.7687-16.9558,17.1771-28.4084-16.3003,3.3033-31.3813,6.7207-45.2552,10.2402l10.472-48.4339,87.6671-18.8184c.4393,14.301-2.6426,30.6947-9.2492,49.1776-5.9511,16.283-13.3325,31.2464-22.1373,44.8833-25.7709,39.6084-56.2754,59.4075-91.5169,59.4075Z"/><path class="cls-11" d="M700.5836,389.494l57.147-11.5615c-.4445,6.828-.6607,16.5165-.6607,29.069,0,29.951,.991,56.2702,2.973,78.9488,1.0999,12.997,2.7516,23.4534,4.9549,31.3813l22.4624-128.8286,56.8167-10.5706c-22.9069,88.3122-37.879,164.8345-44.9248,229.5791l-52.1921,14.5345c-.2214-.4393-1.6516-4.2943-4.2943-11.5615l-17.1771-48.8888c-2.864-7.9279-4.5157-12.9918-4.9549-15.1952-4.6246,25.9871-8.2582,51.2011-10.9009,75.6455l-52.8528,15.8558,43.6035-248.4079Z"/><path class="cls-8" d="M894.4716,437.608c-1.7606,6.4112-3.2981,12.703-4.6142,18.8859l-3.6284,18.2252,52.8528-11.2312-2.9678,45.6011c-25.0532,4.4084-44.719,8.2582-58.9993,11.5615-.8786,4.4084-1.6465,8.8151-2.3071,13.2184l-2.4731,12.8673,61.4621-8.9241-4.2943,61.4413c-31.7117,2.6426-71.9029,10.2402-120.5703,22.7927l39.3144-236.8464,110.0205-16.1965-4.315,61.3687c-21.5908,1.9768-41.4157,4.3877-59.4801,7.2361Z"/><path class="cls-5" d="M1091.0333,446.9713c-7.0511,2.6426-15.4165,5.837-25.1051,9.5796l-24.7747,9.5796c0-10.3492-2.864-15.5255-8.5886-15.5255-8.1493,0-16.3003,4.6246-24.4444,13.8738-5.7298,6.828-8.1493,13.4346-7.2673,19.8198,.6607,4.1853,4.8408,6.2763,12.5525,6.2763,4.1801,0,9.6885-.6607,16.5165-1.982,9.4654-1.982,17.8378-2.973,25.1051-2.973,18.4985,0,29.2852,6.3904,32.3723,19.1591,.8768,3.964,1.3213,8.1493,1.3213,12.5525,0,14.0952-5.2853,29.2904-15.8558,45.5855-13.6577,21.3625-32.8168,39.3092-57.4774,53.8437-12.997,7.7065-25.7657,11.5615-38.3182,11.5615-11.4526,0-22.6838-3.1943-33.6936-9.5796,5.5015-13.2132,14.3131-32.7026,26.4264-58.4684,7.0459,4.846,14.5345,7.2673,22.4624,7.2673,3.5195,0,7.1531-.5465,10.9009-1.6516,6.8228-1.7606,13.3221-4.2943,19.4895-7.5976,8.8048-4.8408,13.2132-9.7957,13.2132-14.8648,0-5.5015-4.5157-8.2582-13.5435-8.2582-6.1673,0-15.1433,1.2694-26.9227,3.7979-11.7829,2.5354-20.7589,3.7997-26.921,3.7997-8.1493,0-14.4255-1.5375-18.8288-4.6246-8.5886-5.7246-12.1081-14.6435-10.5706-26.7567,2.864-24.4444,18.6074-52.7386,47.2371-84.8947,29.2852-33.033,54.5044-50.3191,75.6455-51.8618,20.4804-1.3213,30.7207,14.0952,30.7207,46.2462,0,7.7117-.5517,16.4075-1.6516,26.096Z"/><path class="cls-9" d="M1163.36,437.608c-1.7606,6.4112-3.2981,12.703-4.6142,18.8859l-3.6284,18.2252,52.8528-11.2312-2.9678,45.6011c-25.0532,4.4084-44.719,8.2582-58.9993,11.5615-.8786,4.4084-1.6465,8.8151-2.3071,13.2184l-2.4731,12.8673,61.4621-8.9241-4.2943,61.4413c-31.7117,2.6426-71.9029,10.2402-120.5703,22.7927l39.3144-236.8464,110.0205-16.1965-4.315,61.3687c-21.5908,1.9768-41.4157,4.3877-59.4801,7.2361Z"/><path class="cls-2" d="M1240.012,388.1727c34.5705-10.3492,62.8716-15.5255,84.8947-15.5255,29.7297,0,44.4804,10.3544,44.2642,31.051-.2214,29.7297-18.9429,59.5735-56.156,89.5193,3.0819,8.3724,15.8558,34.6846,38.3182,78.9488-11.3955,10.5706-28.5986,26.096-51.6093,46.5765l-35.1741-91.171-.3303,.0726-.4237-.0726c-5.2386,28.8425-9.1662,55.4746-11.7829,79.9087l-52.301,14.5656c.4445-4.8408,2.864-19.4895,7.2673-43.9338l33.033-189.9396Zm41.6215,52.1921c-1.982,7.4886-3.7478,14.979-5.2853,22.4624l-4.6246,22.4624c7.7065-3.964,15.3041-9.1351,22.7927-15.5255,8.5886-7.4834,14.3131-14.6435,17.1771-21.4714,1.0999-1.982,1.6516-3.8498,1.6516-5.6156,0-4.8408-3.1943-7.2673-9.5796-7.2673-5.0691,0-12.4436,1.6516-22.1321,4.9549Z"/><path class="cls-4" d="M1383.3751,388.503l56.8167-10.5706c-22.9069,88.3122-37.879,164.8345-44.9248,229.5791l-52.5224,14.5345,40.6306-233.5431Z"/><path class="cls-12" d="M1493.6897,437.608c-1.7606,6.4112-3.2981,12.703-4.6142,18.8859l-3.6284,18.2252,52.8528-11.2312-2.9678,45.6011c-25.0532,4.4084-44.719,8.2582-58.9993,11.5615-.8786,4.4084-1.6465,8.8151-2.3071,13.2184l-2.4731,12.8673,61.4621-8.9241-4.2943,61.4413c-31.7117,2.6426-71.9029,10.2402-120.5703,22.7927l39.3144-236.8464,110.0205-16.1965-4.315,61.3687c-21.5908,1.9768-41.4157,4.3877-59.4801,7.2361Z"/></g><path class="cls-16" d="M1002.9827,293.0767l-61.6211-142.2777c-6.0878-14.0538,12.6777-25.4181,22.3123-13.5127h0c1.2228,1.5107,2.0961,3.2736,2.5557,5.161l36.7531,150.6294Z"/><path class="cls-15" d="M477.1942,301.8677l-122.7584-94.7112c-12.125-9.3572-1.2008-28.3804,12.9905-22.6204h0c1.8014,.7296,3.4175,1.8505,4.7343,3.2803l105.0336,114.0513Z"/><path class="cls-21" d="M1359.9023,319.1572l114.9683-104.0304c11.3572-10.2759-1.0226-28.3858-14.7201-21.5336h0c-1.7385,.8693-3.2639,2.113-4.4642,3.6408l-95.784,121.9232Z"/><path class="cls-18" d="M1013.6388,271.594l3.8272-194.8166c.5985-15.3047,22.4332-17.4243,25.9639-2.5205h0c.4484,1.8907,.4718,3.8574,.0693,5.7587l-29.8604,191.5784Z"/><path class="cls-23" d="M451.8642,716.6868l-92.5687,124.3801c-9.1442,12.2881-28.3534,1.6943-22.8429-12.5957h0c.6991-1.8133,1.7912-3.4488,3.1988-4.7899l112.2128-106.9945Z"/><path class="cls-17" d="M427.9293,718.1683l-170.7546,93.8674c-13.5606,7.1167-26.2917-10.7496-15.1352-21.2429h0c1.4153-1.3331,3.1075-2.3349,4.9546-2.9353l180.9352-69.6892Z"/><polygon class="cls-3" points="424.3322 69.391 415.0365 98.2797 433.5624 122.3139 403.2161 122.3996 386.083 147.4466 376.6243 118.6126 347.5075 110.0575 372.0086 92.1501 371.1471 61.816 395.7482 79.5838 424.3322 69.391"/><path class="cls-19" d="M424.3322,69.391l-9.2958,28.8887,18.5259,24.0342-30.3463,.0856-17.1331,25.0471-9.4587-28.834-29.1168-8.5551,24.5011-17.9074-.8615-30.3341,24.6011,17.7678,28.584-10.1929h0Zm19.8665-20.4956l-24.1089,8.5973-22.3291,7.9613-19.2165-13.879-20.7511-14.9872,.7269,25.5871,.672,23.6957-19.1392,13.9873-20.6661,15.1038,24.5602,7.216,22.7429,6.6828,7.3885,22.5239,7.9797,24.3218,14.4513-21.1261,13.3835-19.5663,23.7057-.0671,25.5959-.0717-15.6259-20.2723-14.4727-18.7754,7.2619-22.5659,7.841-24.3658h0Z"/><polygon class="cls-3" points="1529.4142 112.7612 1525.3995 142.8412 1547.9033 163.201 1518.0555 168.678 1505.647 196.3718 1491.2132 169.6767 1461.0393 166.4333 1481.9677 144.4574 1475.7296 114.7585 1503.0977 127.8712 1529.4142 112.7612"/><path class="cls-22" d="M1475.7296,114.7585l27.3681,13.1127,26.3165-15.1101-4.0147,30.08,22.5038,20.3598-29.8478,5.477-12.4085,27.6938-14.4338-26.6951-30.1738-3.2434,20.9284-21.9759-6.2381-29.6989h0Zm-17.6248-22.4539l5.2625,25.0503,4.8728,23.1997-16.3486,17.1656-17.6533,18.5362,25.4513,2.7372,23.5693,2.5336,11.2753,20.8533,12.1732,22.5159,10.4669-23.3583,9.6936-21.6327,23.3167-4.2789,25.1754-4.6203-18.9801-17.173-17.5788-15.9045,3.1354-23.4964,3.3864-25.3722-22.1987,12.7458-20.5588,11.8027-21.3769-10.2435-23.0837-11.0604h0Z"/><path class="cls-1" d="M1403.2097,710.6567l105.7385,131.5392c10.4439,12.9948-5.9679,30.3368-19.5179,20.6229h0c-1.7197-1.2321-3.1437-2.8295-4.173-4.6783l-82.0476-147.4838Z"/><path class="cls-20" d="M1430.382,718.6489l142.9505,89.7101c14.1226,8.8628,4.2855,30.6194-11.6953,25.8724h0c-2.0295-.6025-3.8975-1.6459-5.4737-3.0557l-125.7816-112.5268Z"/><polygon class="cls-3" points="1538.187 859.0164 1550.1614 892.0137 1584.1329 900.8561 1556.4512 922.4405 1558.5393 957.4816 1529.4563 937.8251 1496.7753 950.6388 1506.4834 916.9053 1484.1976 889.7837 1519.2793 888.5921 1538.187 859.0164"/><path class="cls-14" d="M1538.187,859.0164l11.9744,32.9973,33.9716,8.8424-27.6817,21.5844,2.0881,35.0411-29.083-19.6565-32.681,12.8137,9.7082-33.7335-22.2858-27.1216,35.0817-1.1916,18.9077-29.5757h0Zm3.144-28.3721l-13.7869,21.5675-15.3316,23.9799-28.444,.9677-25.5816,.8687,16.2496,19.7768,18.0692,21.9898-7.8699,27.3504-7.0791,24.6005,23.8303-9.3443,26.4966-10.3904,23.5816,15.9371,21.2078,14.3347-1.5227-25.5515-1.6924-28.4126,22.4434-17.4997,20.1856-15.7422-24.7709-6.4466-27.5452-7.1696-9.7074-26.7542-8.7322-24.0618h0Z"/><path class="cls-13" d="M510.3101,301.4937l-92.7257-124.2632c-9.1609-12.2759,6.4818-27.6559,18.6012-18.2883h0c1.5361,1.1886,2.7913,2.7024,3.6746,4.4333l70.4499,138.1182Z"/><g><path class="cls-3" d="M617.7852,707.2229l-6.9814,111.3995-34.6036,1.5177,.3035-58.7351-15.6323,47.3524h-13.3558l-11.9899-42.3439-.1518,49.1736-35.059,1.0624,1.5177-104.8733,39.005-1.5177,15.4806,50.236,20.6408-53.2714h40.8262Z"/><path class="cls-3" d="M700.3165,708.437c-.3035,4.7561-.5824,9.461-.8347,14.1146-.2536,4.6556-.5824,9.3605-.9865,14.1146l-32.1753,1.6695-.7589,9.5615h22.6138l-1.6695,23.5244-22.7656,.7589-.7589,11.0792h32.1753c-.3035,5.5662-.6201,11.0922-.9482,16.5812-.3301,5.4897-.6207,10.9917-.873,16.5047l-65.413,1.5177,2.4283-109.4264h69.9661Z"/><path class="cls-3" d="M785.7321,777.4926c0,6.9321-1.2025,12.99-3.6042,18.1748-2.4037,5.1861-5.692,9.4986-9.8651,12.9381-4.1743,3.4414-9.0569,6.0215-14.6465,7.7403-5.5902,1.7201-11.5981,2.5801-18.0224,2.5801-2.4796,0-5.1985-.3295-8.1573-.9859-2.9602-.6577-5.9573-1.4801-8.9927-2.4666-3.0354-.9865-5.9573-2.0489-8.7644-3.1872-2.8084-1.1383-5.3003-2.2123-7.475-3.2254l3.3389-31.2647c4.2995,2.5801,9.068,4.5414,14.3047,5.8814,5.2354,1.3413,10.3827,2.0106,15.4423,2.0106,.9606,0,2.1248-.0376,3.4907-.1135,1.3659-.0759,2.6677-.3035,3.9078-.683,1.2395-.3794,2.2889-.9482,3.1496-1.7071,.8594-.7589,1.29-1.8465,1.29-3.2637,0-.9599-.3035-1.783-.9106-2.4659-.6071-.683-1.3919-1.2388-2.3524-1.6695-.9619-.4294-2.0489-.7589-3.2631-.9865-1.2142-.2277-2.4037-.3911-3.5666-.4936-1.1642-.1005-2.2519-.1518-3.2631-.1518h-2.4283c-4.3514,0-8.3091-.7589-11.8764-2.2766-3.566-1.5177-6.628-3.6295-9.1815-6.3361-2.5555-2.7059-4.5414-5.919-5.9573-9.6374-1.4172-3.7184-2.1248-7.752-2.1248-12.104,0-5.9683,1.2012-11.3186,3.6042-16.0494,2.4024-4.7302,5.6155-8.7514,9.6381-12.0657,4.0213-3.313,8.6373-5.8555,13.8487-7.6261,5.2101-1.7707,10.598-2.6566,16.1635-2.6566,2.4783,0,5.0331,.0895,7.6644,.2659,2.63,.1777,5.2478,.4929,7.8544,.9482,2.6047,.4553,5.1466,1.0377,7.6261,1.746,2.4783,.7083,4.8307,1.5929,7.0573,2.6553l-2.8836,30.8094c-3.4408-1.1629-7.0456-2.1365-10.814-2.9213-3.769-.7835-7.4497-1.1765-11.041-1.1765-.6583,0-1.506,.013-2.5418,.0383-1.0377,.0259-2.1248,.1018-3.2637,.2277-1.1376,.1271-2.2895,.3165-3.4525,.5695-1.1642,.253-2.2007,.5948-3.1113,1.0241-.9106,.43-1.6448,.9995-2.2007,1.7077-.5571,.7083-.8101,1.5436-.7589,2.5036,.0499,1.1136,.467,2.0113,1.2524,2.6942,.7835,.683,1.7947,1.2142,3.0354,1.5936,1.2388,.3794,2.6047,.6453,4.0978,.7971,1.4911,.1518,2.9712,.24,4.439,.2653,1.4665,.0259,2.8324,.0259,4.0978,0,1.2641-.0253,2.3012,.013,3.1113,.1135,4.0466,.2542,7.6891,1.1136,10.9275,2.5801,3.2371,1.4684,5.982,3.4155,8.2339,5.8438,2.25,2.4283,3.9707,5.3249,5.1602,8.6885,1.1876,3.3649,1.783,7.0703,1.783,11.1169Z"/><path class="cls-3" d="M872.5889,777.4926c0,6.9321-1.2025,12.99-3.6042,18.1748-2.4037,5.1861-5.692,9.4986-9.8651,12.9381-4.1743,3.4414-9.0569,6.0215-14.6465,7.7403-5.5902,1.7201-11.5981,2.5801-18.0224,2.5801-2.4796,0-5.1985-.3295-8.1573-.9859-2.9602-.6577-5.9573-1.4801-8.9927-2.4666-3.0354-.9865-5.9573-2.0489-8.7644-3.1872-2.8084-1.1383-5.3003-2.2123-7.475-3.2254l3.3389-31.2647c4.2995,2.5801,9.068,4.5414,14.3047,5.8814,5.2354,1.3413,10.3827,2.0106,15.4423,2.0106,.9606,0,2.1248-.0376,3.4907-.1135,1.3659-.0759,2.6677-.3035,3.9078-.683,1.2395-.3794,2.2889-.9482,3.1496-1.7071,.8594-.7589,1.29-1.8465,1.29-3.2637,0-.9599-.3035-1.783-.9106-2.4659-.6071-.683-1.3919-1.2388-2.3524-1.6695-.9619-.4294-2.0489-.7589-3.2631-.9865-1.2142-.2277-2.4037-.3911-3.5666-.4936-1.1642-.1005-2.2519-.1518-3.2631-.1518h-2.4283c-4.3514,0-8.3091-.7589-11.8764-2.2766-3.566-1.5177-6.628-3.6295-9.1815-6.3361-2.5555-2.7059-4.5414-5.919-5.9573-9.6374-1.4172-3.7184-2.1248-7.752-2.1248-12.104,0-5.9683,1.2012-11.3186,3.6042-16.0494,2.4024-4.7302,5.6155-8.7514,9.6381-12.0657,4.0213-3.313,8.6373-5.8555,13.8487-7.6261,5.2101-1.7707,10.598-2.6566,16.1635-2.6566,2.4783,0,5.0331,.0895,7.6644,.2659,2.63,.1777,5.2478,.4929,7.8544,.9482,2.6047,.4553,5.1466,1.0377,7.6261,1.746,2.4783,.7083,4.8307,1.5929,7.0573,2.6553l-2.8836,30.8094c-3.4408-1.1629-7.0456-2.1365-10.814-2.9213-3.769-.7835-7.4497-1.1765-11.041-1.1765-.6583,0-1.506,.013-2.5418,.0383-1.0377,.0259-2.1248,.1018-3.2637,.2277-1.1376,.1271-2.2895,.3165-3.4525,.5695-1.1642,.253-2.2007,.5948-3.1113,1.0241-.9106,.43-1.6448,.9995-2.2007,1.7077-.5571,.7083-.8101,1.5436-.7589,2.5036,.0499,1.1136,.467,2.0113,1.2524,2.6942,.7835,.683,1.7947,1.2142,3.0354,1.5936,1.2388,.3794,2.6047,.6453,4.0978,.7971,1.4911,.1518,2.9712,.24,4.439,.2653,1.4665,.0259,2.8324,.0259,4.0978,0,1.2641-.0253,2.3012,.013,3.1113,.1135,4.0466,.2542,7.6891,1.1136,10.9275,2.5801,3.2371,1.4684,5.982,3.4155,8.2339,5.8438,2.25,2.4283,3.9707,5.3249,5.1602,8.6885,1.1876,3.3649,1.783,7.0703,1.783,11.1169Z"/><path class="cls-3" d="M954.3614,708.437c-.3035,4.7561-.5824,9.461-.8347,14.1146-.2536,4.6556-.5824,9.3605-.9865,14.1146l-32.1753,1.6695-.7589,9.5615h22.6138l-1.6695,23.5244-22.7656,.7589-.7589,11.0792h32.1753c-.3035,5.5662-.6201,11.0922-.9482,16.5812-.3301,5.4897-.6207,10.9917-.873,16.5047l-65.413,1.5177,2.4283-109.4264h69.9661Z"/><path class="cls-3" d="M1070.1751,746.3796c0,4.0485-.7342,7.905-2.2007,11.5728-1.4678,3.6684-3.4032,7.1079-5.8055,10.3204-2.403,3.2131-5.1349,6.1726-8.1956,8.8786-3.0614,2.7072-6.1597,5.1485-9.2956,7.3226h23.9797l-1.8212,31.5682-71.0285-2.4283v-27.6222c2.6806-.9106,5.5014-2.0106,8.4615-3.3007,2.9589-1.29,5.8678-2.7701,8.7261-4.4396,2.8577-1.6695,5.5649-3.54,8.1204-5.6155,2.5535-2.0735,4.8054-4.3371,6.7531-6.7914,1.9471-2.4536,3.4907-5.1219,4.6296-8.0056,1.1376-2.8836,1.7071-5.9956,1.7071-9.3345,0-1.9218-.3412-3.6165-1.0248-5.0837-.6823-1.4671-1.6312-2.6942-2.8454-3.6808-1.2142-.9865-2.6184-1.7194-4.2113-2.2007-1.5942-.48-3.3013-.7212-5.1226-.7212-1.5177,0-3.0614,.1647-4.629,.4936-1.5689,.3295-3.1113,.7971-4.629,1.4042-1.5177,.6071-2.9478,1.3536-4.2872,2.2383-1.3413,.8853-2.5425,1.8855-3.6049,2.9971l-6.6779-29.747c1.8712-1.8705,4.0219-3.4395,6.4502-4.7049,2.4283-1.2635,4.9825-2.2882,7.6644-3.073,2.6806-.7835,5.4125-1.353,8.1956-1.7071,2.7818-.3541,5.5137-.5318,8.1956-.5318,5.969,0,11.5345,1.0754,16.6947,3.2254,5.1602,2.1507,9.6491,5.1103,13.4699,8.8786,3.8189,3.7696,6.8297,8.2332,9.0297,13.3934,2.2013,5.1602,3.3013,10.7264,3.3013,16.6947Z"/><path class="cls-3" d="M1174.1061,763.5297c0,4.4526-.4936,8.8792-1.4794,13.2806-.9872,4.4013-2.4167,8.6256-4.2878,12.6722-1.8725,4.0485-4.162,7.8168-6.8679,11.3075-2.7066,3.4907-5.8049,6.5261-9.2956,9.1062-3.4907,2.5801-7.3226,4.6037-11.4969,6.0708-4.173,1.4671-8.6639,2.2-13.4693,2.2-4.8567,0-9.3851-.7329-13.5834-2.2-4.1996-1.4671-8.0322-3.4907-11.4969-6.0708-3.4654-2.5801-6.5637-5.6155-9.2956-9.1062-2.7319-3.4907-5.0344-7.259-6.9056-11.3075-1.8725-4.0466-3.3007-8.2832-4.2878-12.7104-.9859-4.4266-1.4794-8.8409-1.4794-13.2423s.4936-8.8273,1.4794-13.2793c.9872-4.4519,2.4154-8.7015,4.2878-12.7487,1.8712-4.0472,4.1737-7.8285,6.9056-11.3452,2.7319-3.5154,5.8302-6.5637,9.2956-9.1438,3.4648-2.5801,7.3103-4.6037,11.5345-6.0708,4.2236-1.4671,8.7391-2.2013,13.5458-2.2013s9.2963,.7342,13.4693,2.2013c4.1743,1.4671,8.0062,3.4907,11.4969,6.0708,3.4907,2.5801,6.589,5.6285,9.2956,9.1438,2.7059,3.5167,4.9955,7.298,6.8679,11.3452,1.8712,4.0472,3.3007,8.2968,4.2878,12.7487,.9859,4.4519,1.4794,8.8779,1.4794,13.2793Zm-32.0236,2.2766c0-2.2253-.3035-4.7049-.9106-7.4367-.6071-2.7319-1.5436-5.286-2.8078-7.6638-1.2654-2.3777-2.8836-4.3754-4.8567-5.9956-1.973-1.6182-4.3255-2.4283-7.0573-2.4283-2.7831,0-5.1602,.8101-7.1332,2.4283-1.973,1.6202-3.6042,3.6178-4.8949,5.9956-1.2894,2.3777-2.2383,4.9319-2.8454,7.6638-.6071,2.7319-.9106,5.2114-.9106,7.4367,0,2.2273,.3035,4.7049,.9106,7.4367,.6071,2.7319,1.556,5.2873,2.8454,7.6651,1.2907,2.3777,2.9219,4.376,4.8949,5.9943,1.973,1.6202,4.3501,2.4283,7.1332,2.4283,2.7319,0,5.0843-.8081,7.0573-2.4283,1.973-1.6182,3.5913-3.6165,4.8567-5.9943,1.2641-2.3777,2.2007-4.9332,2.8078-7.6651,.6071-2.7319,.9106-5.2095,.9106-7.4367Z"/><path class="cls-3" d="M1257.9281,746.3796c0,4.0485-.7342,7.905-2.2007,11.5728-1.4678,3.6684-3.4032,7.1079-5.8055,10.3204-2.403,3.2131-5.1349,6.1726-8.1956,8.8786-3.0614,2.7072-6.1597,5.1485-9.2956,7.3226h23.9797l-1.8212,31.5682-71.0285-2.4283v-27.6222c2.6806-.9106,5.5014-2.0106,8.4615-3.3007,2.9589-1.29,5.8678-2.7701,8.7261-4.4396,2.8577-1.6695,5.5649-3.54,8.1204-5.6155,2.5535-2.0735,4.8054-4.3371,6.7531-6.7914,1.9471-2.4536,3.4907-5.1219,4.6296-8.0056,1.1376-2.8836,1.7071-5.9956,1.7071-9.3345,0-1.9218-.3412-3.6165-1.0248-5.0837-.6823-1.4671-1.6312-2.6942-2.8454-3.6808-1.2142-.9865-2.6184-1.7194-4.2113-2.2007-1.5942-.48-3.3013-.7212-5.1226-.7212-1.5177,0-3.0614,.1647-4.629,.4936-1.5689,.3295-3.1113,.7971-4.629,1.4042-1.5177,.6071-2.9478,1.3536-4.2872,2.2383-1.3413,.8853-2.5425,1.8855-3.6049,2.9971l-6.6779-29.747c1.8712-1.8705,4.0219-3.4395,6.4502-4.7049,2.4283-1.2635,4.9825-2.2882,7.6644-3.073,2.6806-.7835,5.4125-1.353,8.1956-1.7071,2.7818-.3541,5.5137-.5318,8.1956-.5318,5.969,0,11.5345,1.0754,16.6947,3.2254,5.1602,2.1507,9.6491,5.1103,13.4699,8.8786,3.8189,3.7696,6.8297,8.2332,9.0297,13.3934,2.2013,5.1602,3.3013,10.7264,3.3013,16.6947Z"/><path class="cls-3" d="M1342.2047,746.3796c0,4.0485-.7342,7.905-2.2007,11.5728-1.4678,3.6684-3.4032,7.1079-5.8055,10.3204-2.403,3.2131-5.1349,6.1726-8.1956,8.8786-3.0614,2.7072-6.1597,5.1485-9.2956,7.3226h23.9797l-1.8212,31.5682-71.0285-2.4283v-27.6222c2.6806-.9106,5.5014-2.0106,8.4615-3.3007,2.9589-1.29,5.8678-2.7701,8.7261-4.4396,2.8577-1.6695,5.5649-3.54,8.1204-5.6155,2.5535-2.0735,4.8054-4.3371,6.7531-6.7914,1.9471-2.4536,3.4907-5.1219,4.6296-8.0056,1.1376-2.8836,1.7071-5.9956,1.7071-9.3345,0-1.9218-.3412-3.6165-1.0248-5.0837-.6823-1.4671-1.6312-2.6942-2.8454-3.6808-1.2142-.9865-2.6184-1.7194-4.2113-2.2007-1.5942-.48-3.3013-.7212-5.1226-.7212-1.5177,0-3.0614,.1647-4.629,.4936-1.5689,.3295-3.1113,.7971-4.629,1.4042-1.5177,.6071-2.9478,1.3536-4.2872,2.2383-1.3413,.8853-2.5425,1.8855-3.6049,2.9971l-6.6779-29.747c1.8712-1.8705,4.0219-3.4395,6.4502-4.7049,2.4283-1.2635,4.9825-2.2882,7.6644-3.073,2.6806-.7835,5.4125-1.353,8.1956-1.7071,2.7818-.3541,5.5137-.5318,8.1956-.5318,5.969,0,11.5345,1.0754,16.6947,3.2254,5.1602,2.1507,9.6491,5.1103,13.4699,8.8786,3.8189,3.7696,6.8297,8.2332,9.0297,13.3934,2.2013,5.1602,3.3013,10.7264,3.3013,16.6947Z"/></g></svg>